<svg width="25.403" height="25.403" version="1.1" viewBox="0 0 6.7212 6.7212" xmlns="http://www.w3.org/2000/svg"><g transform="translate(10.319 11.451)"><title>Roblox</title><g transform="translate(36.215 -1.3417)"><path d="m-42.201-6.8274h0.42891c0.31833 0 0.57671 0.25838 0.57671 0.57671v0.43408c0 0.31833-0.25838 0.57671-0.57671 0.57671h-0.42891c-0.31833 0-0.57671-0.25838-0.57671-0.57671v-0.43408c0-0.31833 0.25838-0.57671 0.57671-0.57671z"/><path d="m-41.196-5.8714v1.849c0 0.34933-0.28319 0.63149-0.63149 0.63149h-2.2748c-0.14676 0-0.26562-0.11886-0.26562-0.26562v-0.11679c0-0.5178 0.41961-0.93741 0.93741-0.93741h0.62115c0.30179 0 0.54674-0.24495 0.54674-0.5457v-0.62218z"/><path d="m-42.783-6.3075v-1.0614l0.56224 0.5333z"/><path d="m-41.195-6.3075v-1.0614l-0.51883 0.5333z"/><path d="m-43.871-3.917h-0.76688c-0.14159 0-0.25942-0.11782-0.25942-0.25942v-0.042375c0-0.27492 0.11265-0.53743 0.31109-0.7276l0.47749-0.45682c0.17777-0.1695 0.27802-0.40514 0.27802-0.65009v-0.067179c0-0.39171-0.31523-0.70693-0.70693-0.70693h-0.38757c-0.14573 0-0.26458 0.11782-0.26458 0.26458 0 0.14573 0.11886 0.26458 0.26458 0.26458h0.38757c0.09715 0 0.17777 0.080615 0.17777 0.17777v0.067179c0 0.10129-0.04134 0.1974-0.11369 0.26768l-0.47852 0.45682c-0.30282 0.28939-0.47439 0.6904-0.47439 1.11v0.042375c0 0.43718 0.3514 0.78858 0.78858 0.78858h0.76688c0.14573 0 0.26458-0.11886 0.26458-0.26458s-0.11886-0.26458-0.26458-0.26458z"/><g transform="translate(-.15671 1.3534)"><circle cx="-43.386" cy="-10.955" r=".41455"/><circle class="middle" cx="-43.434" cy="-9.2001" r=".66443"/><circle class="middle" cx="-41.8" cy="-8.9543" r=".41455"/><circle cx="-41.658" cy="-10.567" r=".89532"/></g></g></g></svg>
