<?xml version="1.0" encoding="UTF-8" standalone="no"?>
<!-- Created with Inkscape (http://www.inkscape.org/) -->

<svg width="10mm" height="10mm" viewBox="0 0 10 9.9999999" version="1.1" id="svg5" xml:space="preserve" sodipodi:docname="uk.cetera.Catay.svg" inkscape:version="1.2.1 (9c6d41e410, 2022-07-14)" xmlns:inkscape="http://www.inkscape.org/namespaces/inkscape" xmlns:sodipodi="http://sodipodi.sourceforge.net/DTD/sodipodi-0.dtd" xmlns="http://www.w3.org/2000/svg" xmlns:svg="http://www.w3.org/2000/svg"><sodipodi:namedview id="namedview7" pagecolor="#505050" bordercolor="#eeeeee" borderopacity="1" inkscape:showpageshadow="0" inkscape:pageopacity="0" inkscape:pagecheckerboard="0" inkscape:deskcolor="#505050" inkscape:document-units="mm" showgrid="false" showguides="false" inkscape:zoom="8.0000004" inkscape:cx="9.0624996" inkscape:cy="23.187499" inkscape:window-width="1920" inkscape:window-height="1014" inkscape:window-x="0" inkscape:window-y="0" inkscape:window-maximized="1" inkscape:current-layer="layer1" /><defs id="defs2" /><g inkscape:label="Layer 1" inkscape:groupmode="layer" id="layer1" transform="translate(13.065269,13.090053)"><title id="title1084">Roblox</title><rect style="fill:black;fill-opacity:1;stroke-width:0.264583" id="rect1503" width="10" height="10" x="-13.065269" y="-13.090053" rx="1" inkscape:export-filename="rect1503.png" inkscape:export-xdpi="965.19995" inkscape:export-ydpi="965.19995" /><g id="g1667" transform="translate(35.107975,-1.3415987)"><path d="m -42.20109,-6.827378 h 0.428914 c 0.318327,0 0.576709,0.258382 0.576709,0.5767091 v 0.4340817 c 0,0.3183271 -0.258382,0.5767091 -0.576709,0.5767091 h -0.428914 c -0.318327,0 -0.576709,-0.258382 -0.576709,-0.5767091 v -0.4340817 c 0,-0.3183271 0.258382,-0.5767091 0.576709,-0.5767091 z m 0,0" id="path1505" style="fill:#333;fill-opacity:1" /><path d="m -41.1965,-5.8713641 v 1.8489826 c 0,0.3493328 -0.283187,0.6314861 -0.631486,0.6314861 h -2.274797 c -0.146761,0 -0.265617,-0.1188559 -0.265617,-0.2656168 v -0.1167887 c 0,-0.5177977 0.419613,-0.9374105 0.937411,-0.9374105 h 0.62115 c 0.301791,0 0.546737,-0.2449462 0.546737,-0.5457031 v -0.6221841 z m 0,0" id="path1507" style="fill:#333;fill-opacity:1" /><path d="M -42.782967,-6.3075131 V -7.368947 l 0.56224,0.5333007 z m 0,0" id="path1509" style="fill:#333;fill-opacity:1" /><path d="M -41.195467,-6.3075131 V -7.368947 l -0.518831,0.5333007 z m 0,0" id="path1511" style="fill:#333;fill-opacity:1" /><path d="m -43.871272,-3.9169614 h -0.766879 c -0.141593,0 -0.259415,-0.1178221 -0.259415,-0.2594158 v -0.042375 c 0,-0.2749187 0.112654,-0.5374349 0.311092,-0.7276041 l 0.47749,-0.4568198 c 0.177767,-0.1694984 0.278019,-0.4051432 0.278019,-0.6500895 v -0.067179 c 0,-0.3917074 -0.315226,-0.7069335 -0.706933,-0.7069335 h -0.387574 c -0.145727,0 -0.264583,0.1178221 -0.264583,0.2645833 0,0.1457275 0.118856,0.2645833 0.264583,0.2645833 h 0.387574 c 0.09715,0 0.177767,0.080615 0.177767,0.1777669 v 0.067179 c 0,0.101286 -0.04134,0.1974041 -0.113689,0.267684 l -0.478523,0.4568195 c -0.302824,0.2893881 -0.47439,0.6903974 -0.47439,1.1100099 v 0.042375 c 0,0.4371827 0.3514,0.7885825 0.788582,0.7885825 h 0.766879 c 0.145727,0 0.264583,-0.1188559 0.264583,-0.2645834 0,-0.1457275 -0.118856,-0.2645833 -0.264583,-0.2645833 z m 0,0" id="path1513" style="fill:#333;fill-opacity:1" /><g id="g1637" transform="translate(-0.15671402,1.3533809)" style="fill:#333;fill-opacity:1"><circle cx="-43.386227" cy="-10.955053" r="0.41455111" id="circle1529" style="fill:#333;fill-opacity:1" /><circle cx="-43.434402" class="middle" cy="-9.20012" r="0.66443324" id="circle1531" style="fill:#333;fill-opacity:1" /><circle cx="-41.799995" cy="-8.9542685" r="0.41455111" class="middle" id="circle1533" style="fill:#333;fill-opacity:1" /><circle cx="-41.658356" cy="-10.567179" r="0.89531523" id="circle1535" style="fill:#333;fill-opacity:1" /></g></g></g></svg>
